<?xml version="1.0" encoding="UTF-8"?><svg id="uuid-a99d9d8e-f95a-4dca-b177-240236eae553" xmlns="http://www.w3.org/2000/svg" viewBox="0 0 429.89 69.36">
<title>Synthesia logo - Brandlogos.net</title><path d="M400.23,34.8c0-7.33,3.91-12.31,9.53-12.31,6.36,0,10.11,4.65,10.11,12.31s-3.75,12.39-10.11,12.39c-5.62,0-9.53-5.05-9.53-12.39ZM407.64,55.99c5.3,0,9.37-2.2,12.22-5.87l.81,5.05h9.21V14.43h-9.21l-.81,5.05c-2.85-3.67-6.93-5.87-12.22-5.87-10.92,0-18.01,9.21-18.01,21.19s7.09,21.19,18.01,21.19ZM373.17,10.03h10.27V0h-10.27v10.02ZM373.17,55.18h10.27V14.43h-10.27v40.75ZM350.68,55.99c10.43,0,16.95-5.22,16.95-13.45,0-6.11-3.18-10.02-9.45-11.25l-9.37-1.71c-3.18-.57-4.65-1.79-4.65-3.91,0-2.36,2.53-3.91,6.19-3.91s6.27,1.71,6.93,4.16h9.7c-.73-7.5-7.09-12.31-16.46-12.31-10.1,0-16.38,4.97-16.38,12.79,0,6.11,3.83,10.43,10.84,11.82l9.37,1.71c2.12.41,3.26,1.71,3.26,3.5,0,2.77-2.53,4.4-6.85,4.4s-7.17-1.96-7.74-5.3h-10.19c.49,8.31,7.33,13.45,17.85,13.45ZM300.56,30.16c.9-4.89,4.97-8.39,9.78-8.39,5.22,0,8.47,2.93,9.37,8.39h-19.15ZM310.34,55.99c10.27,0,17.77-5.38,18.42-13.45h-9.45c-.81,3.18-3.91,5.3-8.96,5.3s-9.94-4.4-10.02-10.43h29.01c0-.73.08-1.47.08-2.85,0-12.88-7.33-20.94-19.07-20.94s-19.8,8.56-19.8,21.19,8.15,21.19,19.8,21.19ZM248.57,55.18h10.27v-23.55c0-5.54,3.5-9.13,8.23-9.13,4.48,0,7.5,3.1,7.5,8.48v24.2h10.27v-25.43c0-9.86-5.46-16.14-14.02-16.14-5.22,0-9.45,2.12-11.98,5.7V0h-10.27v55.18ZM232.92,55.18h9.78v-8.48h-6.11c-2.12,0-3.67-1.55-3.67-3.67v-20.13h9.78v-8.48h-9.78V2.46h-10.27v11.97h-6.93v8.48h6.93v22c0,5.95,4.32,10.27,10.27,10.27ZM175.55,55.18h10.27v-23.55c0-5.54,3.5-9.13,8.23-9.13,4.48,0,7.5,3.1,7.5,8.48v24.2h10.27v-25.43c0-9.86-5.46-16.14-14.02-16.14-5.38,0-9.7,2.28-12.22,6.11l-.81-5.3h-9.21v40.75ZM135.62,69.36h10.35c4.24,0,7.82-2.61,9.13-6.6l15.97-48.33h-10.84l-8.48,28.12-8.48-28.12h-10.68l13.77,41.64c.81,2.36-.49,4.89-3.26,4.89h-7.5v8.39ZM114.76,55.99c10.43,0,16.95-5.22,16.95-13.45,0-6.11-3.18-10.02-9.45-11.25l-9.37-1.71c-3.18-.57-4.64-1.79-4.64-3.91,0-2.36,2.53-3.91,6.19-3.91s6.28,1.71,6.93,4.16h9.7c-.73-7.5-7.09-12.31-16.46-12.31-10.11,0-16.38,4.97-16.38,12.79,0,6.11,3.83,10.43,10.84,11.82l9.37,1.71c2.12.41,3.26,1.71,3.26,3.5,0,2.77-2.53,4.4-6.85,4.4s-7.17-1.96-7.74-5.3h-10.19c.49,8.31,7.33,13.45,17.85,13.45Z" style="fill:#0d0f2c;"/><path d="M13.92,60.76h44.62c10.99,0,18-6.76,19.14-17.1l2.28-21.42h-15.39l-2.12,19.54c-.24,2.61-1.87,4.07-4.56,4.07H15.39l-1.47,14.9ZM15.39,45.85l2.12-19.54c.24-2.61,1.87-4.07,4.56-4.07h42.51l1.47-14.9H21.42C10.42,7.34,3.42,14.1,2.28,24.44L0,45.85h15.39Z" style="fill:#3e57da;"/></svg>