<?xml version="1.0" encoding="UTF-8"?><svg id="Layer_1" xmlns="http://www.w3.org/2000/svg" viewBox="0 0 132.23 40"><defs><style>.cls-1{fill:#f22f46;}</style></defs><path class="cls-1" d="M15,28.85c2.12,0,3.85-1.72,3.85-3.85s-1.72-3.85-3.85-3.85-3.85,1.72-3.85,3.85,1.72,3.85,3.85,3.85ZM15,18.85c2.12,0,3.85-1.72,3.85-3.85s-1.72-3.85-3.85-3.85-3.85,1.72-3.85,3.85,1.72,3.85,3.85,3.85ZM25,28.85c2.12,0,3.85-1.72,3.85-3.85s-1.72-3.85-3.85-3.85-3.85,1.72-3.85,3.85,1.72,3.85,3.85,3.85ZM25,18.85c2.12,0,3.85-1.72,3.85-3.85s-1.72-3.85-3.85-3.85-3.85,1.72-3.85,3.85,1.72,3.85,3.85,3.85ZM20,0c10.83,0,20,9.17,20,20s-9.17,20-20,20S0,30.83,0,20,9.17,0,20,0ZM20,5.38c-8.05,0-14.62,6.34-14.62,14.35s6.57,14.88,14.62,14.88,14.62-6.88,14.62-14.88-6.57-14.35-14.62-14.35ZM62.68,31.92h6.28c.23,0,.32-.1.39-.32l2.08-7.68,2.02,7.68c.06.23.16.32.39.32h6.28c.26,0,.42-.1.48-.32l4.39-16.29v16.23c0,.23.16.39.39.39h6.91c.23,0,.39-.16.39-.39V14.62c0-.23-.16-.39-.39-.39h-13.47c-.23,0-.36.1-.42.36l-1.53,7.82-1.54-7.82c-.03-.23-.19-.36-.42-.36h-6.84c-.23,0-.39.13-.42.36l-1.5,7.82-1.49-7.82c-.06-.26-.19-.36-.42-.36h-10.21v-5.76c0-.29-.2-.42-.52-.32l-6.42,2.07c-.23.06-.36.26-.36.48v2.72c0,.68-.36.97-1.04.97h-1.66c-.23,0-.39.16-.39.39v4.84c0,.23.16.39.39.39h2.48v5.88c0,4.17,1.64,6.52,6.65,6.52,1.94,0,3.52-.25,4.36-.64.26-.13.35-.29.35-.55v-4.58c0-.26-.25-.39-.58-.23-.42.19-.91.23-1.39.23-1.29,0-1.7-.48-1.7-2.1v-4.54h3.01c.23,0,.38-.15.38-.38v-4.32l4.59,16.29c.06.23.23.32.48.32ZM85,12.31c0,.23.16.39.39.39h6.91c.23,0,.39-.16.39-.39v-3.84c0-.23-.16-.39-.39-.39h-6.91c-.23,0-.39.16-.39.39v3.84ZM94.23,31.54c0,.23.16.39.39.39h6.92c.23,0,.39-.16.39-.39V8.47c0-.23-.16-.39-.39-.39h-6.92c-.23,0-.39.16-.39.39v23.07ZM103.46,31.54c0,.23.16.39.39.39h6.9c.23,0,.39-.16.39-.39V14.62c0-.23-.17-.39-.39-.39h-6.9c-.23,0-.39.16-.39.39v16.92ZM103.46,12.31c0,.23.16.39.39.39h6.91c.23,0,.39-.16.39-.39v-3.84c0-.23-.17-.39-.39-.39h-6.9c-.23,0-.39.16-.39.39v3.84ZM112.35,23.23c0,5.27,4.04,9.23,9.96,9.23s9.92-3.96,9.92-9.23v-.42c0-5.27-4.01-9.12-9.92-9.12s-9.96,3.85-9.96,9.12v.42ZM119.77,23.25v-.32c0-2.42,1.12-3.37,2.54-3.37s2.54.95,2.54,3.37v.32c0,2.39-1.12,3.39-2.54,3.39s-2.54-1-2.54-3.39Z"/></svg>